<svg width="2672" height="671" viewBox="0 0 2672 671" fill="none" xmlns="http://www.w3.org/2000/svg">
<path d="M891.059 172C960.895 172 995.398 226.69 994.556 278.865C993.713 330.199 959.211 381.532 891.059 381.532H843.947V468.983H772V172H891.059ZM891.059 313.784C913.357 313.784 924.292 295.696 924.292 278.439C924.292 260.778 913.357 241.836 891.059 241.836H843.947V313.784H891.059Z" fill="white"/>
<path d="M1082.94 468.983H1016.89V241.421H1076.63L1079.16 256.567C1093.88 242.724 1110.3 236.784 1128.76 236.784C1137.42 236.923 1146.03 238.057 1154.43 240.164L1153.58 302.456C1146.36 300.25 1138.84 299.115 1131.29 299.087C1107.3 299.514 1082.91 312.134 1082.91 342.853L1082.94 468.983Z" fill="white"/>
<path d="M1178.43 355.45C1178.43 193.053 1421.2 193.468 1421.2 355.45C1421.2 517.433 1178.43 516.579 1178.43 355.45ZM1354.72 355.45C1354.72 278.035 1244.91 278.45 1244.91 355.45C1244.91 431.596 1354.72 432.081 1354.72 355.45Z" fill="white"/>
<path d="M1517.14 448.011V535.52H1451.5V241.432H1517.14V264.146C1532.7 244.801 1555 238.491 1576.88 238.491C1649.25 238.491 1686.69 296.538 1686.26 359.233C1685.43 421.525 1649.66 472.836 1576.04 472.836C1553.74 472.836 1532.29 465.257 1517.14 448.011ZM1517.14 356.707C1517.14 387 1540.28 411.824 1568.89 411.824C1602.54 411.824 1619.38 384.9 1619.79 357.607C1620.21 330.314 1602.96 302.075 1568.89 302.075C1540.28 302.017 1517.14 326.415 1517.14 356.707Z" fill="white"/>
<path d="M1805.34 285.579H1891.19V174.538H1963.14V468.994H1891.19V355.023H1805.36V468.994H1733.42V174.538H1805.36L1805.34 285.579Z" fill="white"/>
<path d="M2226.51 380.69H2063.27C2071.26 401.73 2091.88 412.251 2112.07 412.666C2126.79 412.666 2140.68 407.614 2150.36 397.093H2222.26C2204.6 447.584 2156.64 472.409 2108.67 471.567C2050.99 470.309 1993.81 431.596 1993.81 354.608C1993.81 276.35 2053.13 237.649 2112.46 238.099C2170.94 238.525 2228.96 277.227 2228.96 354.608C2229.02 363.362 2228.2 372.1 2226.51 380.69ZM2156.67 328.941C2150.36 306.216 2131.85 295.707 2110.39 295.707C2090.61 295.707 2072.52 306.643 2065.79 328.941H2156.67Z" fill="white"/>
<path d="M2333 468.983H2266.95V241.421H2326.69L2329.22 256.567C2343.94 242.724 2360.37 236.784 2378.82 236.784C2387.48 236.922 2396.08 238.056 2404.48 240.164L2403.65 302.456C2396.42 300.25 2388.9 299.115 2381.34 299.087C2357.37 299.514 2332.96 312.134 2332.96 342.853L2333 468.983Z" fill="white"/>
<path d="M2428.48 355.45C2428.48 193.053 2671.24 193.468 2671.24 355.45C2671.24 517.433 2428.48 516.579 2428.48 355.45ZM2604.77 355.45C2604.77 278.035 2494.95 278.45 2494.95 355.45C2494.95 431.596 2604.77 432.081 2604.77 355.45Z" fill="white"/>
<path d="M258 0C115.51 0 0 115.51 0 258V670.34L174.12 501.98C201.111 511.263 229.457 515.994 258 515.98C400.49 515.98 516 400.47 516 257.98C516 115.49 400.49 0 258 0ZM428 85.61H428.27C428.27 85.61 435.4 120.49 460.77 120.49C460.77 120.49 428.48 123.89 428.48 152.83C428.48 123.89 395.48 120.49 395.48 120.49C420.79 120.49 427.96 85.61 427.96 85.61H428ZM323.54 120.61C343.975 120.61 360.54 137.175 360.54 157.61C360.54 178.045 343.975 194.61 323.54 194.61C303.105 194.61 286.54 178.045 286.54 157.61C286.573 137.215 303.104 120.692 323.5 120.67L323.54 120.61ZM238.54 86.61L288.92 208.61C288.92 208.61 248.78 218.84 185.8 220.41L238.54 86.61ZM251.14 398.49C284.99 375.66 325.92 331.58 325.92 331.58L368.42 474.84L251.14 398.49ZM46.93 498.67C125.57 412.33 141.79 340.67 141.79 340.67C73.18 289.79 26.15 215.78 26.15 215.78C309.86 269.78 465.59 146.39 465.59 146.39C223.51 483.77 46.93 498.67 46.93 498.67Z" fill="#2DADBB"/>
</svg>
