<svg width="516" height="671" viewBox="0 0 516 671" fill="none" xmlns="http://www.w3.org/2000/svg">
<path d="M258 0.22998C115.51 0.22998 3.05176e-05 115.74 3.05176e-05 258.23V670.57L174.12 502.21C201.111 511.493 229.457 516.224 258 516.21C400.49 516.21 516 400.7 516 258.21C516 115.72 400.49 0.22998 258 0.22998ZM428 85.84H428.27C428.27 85.84 435.4 120.72 460.77 120.72C460.77 120.72 428.48 124.12 428.48 153.06C428.48 124.12 395.48 120.72 395.48 120.72C420.79 120.72 427.96 85.84 427.96 85.84H428ZM323.54 120.84C343.975 120.84 360.54 137.405 360.54 157.84C360.54 178.275 343.975 194.84 323.54 194.84C303.105 194.84 286.54 178.275 286.54 157.84C286.573 137.444 303.104 120.922 323.5 120.9L323.54 120.84ZM238.54 86.84L288.92 208.84C288.92 208.84 248.78 219.07 185.8 220.64L238.54 86.84ZM251.14 398.72C284.99 375.89 325.92 331.81 325.92 331.81L368.42 475.07L251.14 398.72ZM46.93 498.9C125.57 412.56 141.79 340.9 141.79 340.9C73.18 290.02 26.15 216.01 26.15 216.01C309.86 270.01 465.59 146.62 465.59 146.62C223.51 484 46.93 498.9 46.93 498.9Z" fill="#2DADBB"/>
</svg>
